<mxfile host="app.diagrams.net" modified="2023-10-31T16:53:22.126Z" agent="Mozilla/5.0 (Windows NT 10.0; Win64; x64) AppleWebKit/537.36 (KHTML, like Gecko) Chrome/118.0.0.0 Safari/537.36" etag="qTPeRopzejTl0onsQvSx" version="22.0.8" type="device">
  <diagram name="第 1 页" id="1qoh9jGjeWthEPudJtrh">
    <mxGraphModel dx="794" dy="454" grid="1" gridSize="10" guides="1" tooltips="1" connect="1" arrows="1" fold="1" page="1" pageScale="1" pageWidth="827" pageHeight="1169" background="#FFFFFF" math="0" shadow="0">
      <root>
        <mxCell id="0" />
        <mxCell id="1" parent="0" />
        <mxCell id="695wAW6BCzu_Y4DpGypp-1" value="Relation" style="swimlane;fontStyle=1;align=center;verticalAlign=top;childLayout=stackLayout;horizontal=1;startSize=26;horizontalStack=0;resizeParent=1;resizeParentMax=0;resizeLast=0;collapsible=1;marginBottom=0;whiteSpace=wrap;html=1;" vertex="1" parent="1">
          <mxGeometry x="460" y="190" width="160" height="34" as="geometry" />
        </mxCell>
        <mxCell id="695wAW6BCzu_Y4DpGypp-3" value="" style="line;strokeWidth=1;fillColor=none;align=left;verticalAlign=middle;spacingTop=-1;spacingLeft=3;spacingRight=3;rotatable=0;labelPosition=right;points=[];portConstraint=eastwest;strokeColor=inherit;" vertex="1" parent="695wAW6BCzu_Y4DpGypp-1">
          <mxGeometry y="26" width="160" height="8" as="geometry" />
        </mxCell>
        <mxCell id="695wAW6BCzu_Y4DpGypp-32" value="Realization" style="swimlane;fontStyle=1;align=center;verticalAlign=top;childLayout=stackLayout;horizontal=1;startSize=26;horizontalStack=0;resizeParent=1;resizeParentMax=0;resizeLast=0;collapsible=1;marginBottom=0;whiteSpace=wrap;html=1;" vertex="1" parent="1">
          <mxGeometry x="560" y="300" width="160" height="34" as="geometry" />
        </mxCell>
        <mxCell id="695wAW6BCzu_Y4DpGypp-34" value="" style="line;strokeWidth=1;fillColor=none;align=left;verticalAlign=middle;spacingTop=-1;spacingLeft=3;spacingRight=3;rotatable=0;labelPosition=right;points=[];portConstraint=eastwest;strokeColor=inherit;" vertex="1" parent="695wAW6BCzu_Y4DpGypp-32">
          <mxGeometry y="26" width="160" height="8" as="geometry" />
        </mxCell>
        <mxCell id="695wAW6BCzu_Y4DpGypp-40" value="Dependency" style="swimlane;fontStyle=1;align=center;verticalAlign=top;childLayout=stackLayout;horizontal=1;startSize=26;horizontalStack=0;resizeParent=1;resizeParentMax=0;resizeLast=0;collapsible=1;marginBottom=0;whiteSpace=wrap;html=1;" vertex="1" parent="1">
          <mxGeometry x="760" y="300" width="160" height="34" as="geometry" />
        </mxCell>
        <mxCell id="695wAW6BCzu_Y4DpGypp-42" value="" style="line;strokeWidth=1;fillColor=none;align=left;verticalAlign=middle;spacingTop=-1;spacingLeft=3;spacingRight=3;rotatable=0;labelPosition=right;points=[];portConstraint=eastwest;strokeColor=inherit;" vertex="1" parent="695wAW6BCzu_Y4DpGypp-40">
          <mxGeometry y="26" width="160" height="8" as="geometry" />
        </mxCell>
        <mxCell id="695wAW6BCzu_Y4DpGypp-44" value="Generalization" style="swimlane;fontStyle=1;align=center;verticalAlign=top;childLayout=stackLayout;horizontal=1;startSize=26;horizontalStack=0;resizeParent=1;resizeParentMax=0;resizeLast=0;collapsible=1;marginBottom=0;whiteSpace=wrap;html=1;" vertex="1" parent="1">
          <mxGeometry x="360" y="300" width="160" height="34" as="geometry" />
        </mxCell>
        <mxCell id="695wAW6BCzu_Y4DpGypp-46" value="" style="line;strokeWidth=1;fillColor=none;align=left;verticalAlign=middle;spacingTop=-1;spacingLeft=3;spacingRight=3;rotatable=0;labelPosition=right;points=[];portConstraint=eastwest;strokeColor=inherit;" vertex="1" parent="695wAW6BCzu_Y4DpGypp-44">
          <mxGeometry y="26" width="160" height="8" as="geometry" />
        </mxCell>
        <mxCell id="695wAW6BCzu_Y4DpGypp-52" style="edgeStyle=orthogonalEdgeStyle;rounded=0;orthogonalLoop=1;jettySize=auto;html=1;entryX=0.5;entryY=1;entryDx=0;entryDy=0;exitX=0.621;exitY=-0.098;exitDx=0;exitDy=0;exitPerimeter=0;" edge="1" parent="1" source="695wAW6BCzu_Y4DpGypp-48" target="695wAW6BCzu_Y4DpGypp-1">
          <mxGeometry relative="1" as="geometry">
            <mxPoint x="320" y="230" as="targetPoint" />
            <mxPoint x="270" y="270" as="sourcePoint" />
            <Array as="points">
              <mxPoint x="269" y="260" />
              <mxPoint x="540" y="260" />
            </Array>
          </mxGeometry>
        </mxCell>
        <mxCell id="695wAW6BCzu_Y4DpGypp-48" value="Association" style="swimlane;fontStyle=1;align=center;verticalAlign=top;childLayout=stackLayout;horizontal=1;startSize=26;horizontalStack=0;resizeParent=1;resizeParentMax=0;resizeLast=0;collapsible=1;marginBottom=0;whiteSpace=wrap;html=1;" vertex="1" parent="1">
          <mxGeometry x="170" y="300" width="160" height="34" as="geometry" />
        </mxCell>
        <mxCell id="695wAW6BCzu_Y4DpGypp-50" value="" style="line;strokeWidth=1;fillColor=none;align=left;verticalAlign=middle;spacingTop=-1;spacingLeft=3;spacingRight=3;rotatable=0;labelPosition=right;points=[];portConstraint=eastwest;strokeColor=inherit;" vertex="1" parent="695wAW6BCzu_Y4DpGypp-48">
          <mxGeometry y="26" width="160" height="8" as="geometry" />
        </mxCell>
        <mxCell id="695wAW6BCzu_Y4DpGypp-55" value="" style="endArrow=none;html=1;rounded=0;" edge="1" parent="1">
          <mxGeometry width="50" height="50" relative="1" as="geometry">
            <mxPoint x="540" y="260" as="sourcePoint" />
            <mxPoint x="830" y="260" as="targetPoint" />
          </mxGeometry>
        </mxCell>
        <mxCell id="695wAW6BCzu_Y4DpGypp-58" value="" style="endArrow=none;html=1;rounded=0;" edge="1" parent="1">
          <mxGeometry width="50" height="50" relative="1" as="geometry">
            <mxPoint x="440" y="300" as="sourcePoint" />
            <mxPoint x="440" y="260" as="targetPoint" />
          </mxGeometry>
        </mxCell>
        <mxCell id="695wAW6BCzu_Y4DpGypp-59" value="" style="endArrow=none;html=1;rounded=0;" edge="1" parent="1">
          <mxGeometry width="50" height="50" relative="1" as="geometry">
            <mxPoint x="640" y="300" as="sourcePoint" />
            <mxPoint x="640" y="260" as="targetPoint" />
          </mxGeometry>
        </mxCell>
        <mxCell id="695wAW6BCzu_Y4DpGypp-60" value="" style="endArrow=none;html=1;rounded=0;" edge="1" parent="1">
          <mxGeometry width="50" height="50" relative="1" as="geometry">
            <mxPoint x="827" y="300" as="sourcePoint" />
            <mxPoint x="827" y="260" as="targetPoint" />
            <Array as="points" />
          </mxGeometry>
        </mxCell>
        <mxCell id="695wAW6BCzu_Y4DpGypp-61" value="關聯,泛化,&lt;br&gt;現實,依賴都&lt;br&gt;是一種關係" style="rounded=0;whiteSpace=wrap;html=1;" vertex="1" parent="1">
          <mxGeometry x="780" y="390" width="120" height="60" as="geometry" />
        </mxCell>
      </root>
    </mxGraphModel>
  </diagram>
</mxfile>
